<?xml version="1.0" standalone="no"?>
<!DOCTYPE svg PUBLIC "-//W3C//DTD SVG 20010904//EN"
 "http://www.w3.org/TR/2001/REC-SVG-20010904/DTD/svg10.dtd">
<svg version="1.0" xmlns="http://www.w3.org/2000/svg"
 width="500.000000pt" height="500.000000pt" viewBox="0 0 500.000000 500.000000"
 preserveAspectRatio="xMidYMid meet">

<g transform="translate(0.000000,500.000000) scale(0.100000,-0.100000)"
fill="#000000" stroke="none">
<path d="M0 2500 l0 -2500 2500 0 2500 0 0 2500 0 2500 -2500 0 -2500 0 0
-2500z m2851 1247 c152 -41 273 -100 432 -209 60 -42 165 -147 227 -228 254
-332 325 -756 194 -1150 -101 -302 -335 -567 -629 -713 -74 -36 -204 -82 -269
-93 -25 -4 -55 -22 -87 -50 -68 -61 -118 -87 -249 -132 -63 -22 -132 -48 -154
-57 -21 -9 -40 -14 -42 -12 -8 7 71 101 117 140 24 21 66 49 94 63 53 26 46
26 -75 -6 -41 -11 -109 -24 -150 -30 -129 -16 -340 -11 -340 9 0 4 60 22 133
40 190 47 176 42 147 53 -13 5 -37 6 -53 2 -48 -10 -93 -7 -237 17 -127 21
-147 22 -236 11 -90 -11 -116 -11 -102 4 17 16 164 68 237 83 l84 18 -35 21
c-21 13 -52 22 -75 22 -65 0 -147 50 -267 161 -133 122 -160 143 -208 159 -61
19 -47 34 24 26 70 -7 151 -41 211 -88 l42 -33 -31 40 c-112 148 -196 340
-229 529 -19 113 -19 308 0 422 79 459 419 841 863 970 135 39 174 43 377 40
168 -3 201 -6 286 -29z m-1252 -51 c52 -76 61 -97 39 -95 -15 1 -119 155 -110
163 12 13 21 4 71 -68z m-163 -88 c78 -85 88 -98 78 -108 -7 -7 -31 -2 -72 15
-34 14 -64 25 -66 25 -3 0 17 -21 45 -47 32 -30 46 -50 40 -56 -12 -12 -151
107 -151 129 0 18 15 18 75 -1 27 -8 51 -12 54 -9 3 2 -12 21 -32 42 -33 33
-39 52 -17 52 3 0 24 -19 46 -42z m-143 -240 c37 -24 67 -49 67 -55 0 -16 -3
-16 -36 -1 -24 11 -28 10 -46 -12 l-20 -24 28 -23 c21 -17 26 -25 17 -34 -8
-8 -27 5 -72 50 -64 64 -82 101 -61 126 20 25 52 17 123 -27z m-166 -222 c92
-31 118 -45 106 -57 -7 -7 -30 -3 -64 10 -63 24 -67 25 -51 9 23 -23 13 -46
-25 -59 -30 -10 -34 -14 -18 -17 42 -9 125 -44 125 -53 0 -16 -42 -9 -120 20
-44 16 -75 33 -75 41 0 9 20 20 49 28 l48 14 -31 32 c-30 31 -40 56 -23 56 5
0 40 -11 79 -24z m18 -312 c27 -11 10 -29 -23 -26 -18 2 -32 0 -32 -5 0 -4 -3
-18 -6 -31 -5 -18 -1 -24 25 -33 44 -15 40 -33 -6 -26 -57 10 -143 56 -156 84
-9 21 -8 27 8 40 16 12 37 13 97 9 43 -4 85 -9 93 -12z m2798 -557 c51 -13 61
-33 15 -31 -21 2 -29 -4 -37 -28 -10 -28 -9 -30 26 -44 23 -10 32 -19 26 -25
-14 -14 -115 22 -159 56 -58 44 -40 86 36 84 25 0 67 -6 93 -12z m-127 -272
c26 -36 51 -65 55 -65 4 0 12 14 18 30 13 38 36 40 28 3 -10 -49 -26 -83 -40
-83 -7 0 -35 29 -61 65 -48 66 -61 75 -69 53 -2 -7 -8 -10 -12 -6 -11 11 5 68
20 68 7 0 35 -29 61 -65z m-98 -194 c66 -44 97 -77 84 -85 -5 -3 -37 -1 -72 5
-34 5 -64 8 -66 7 -1 -2 22 -17 52 -33 30 -16 54 -35 54 -42 0 -19 -7 -17 -95
30 -102 55 -105 73 -12 70 37 0 67 0 67 2 0 2 -20 16 -45 32 -42 26 -59 53
-34 53 5 0 36 -17 67 -39z m-183 -170 c3 -6 -5 -19 -17 -31 l-22 -20 22 -22
c19 -20 25 -21 43 -10 26 16 37 7 22 -17 -21 -33 22 -56 47 -26 16 19 30 19
30 1 0 -8 -12 -24 -26 -35 -31 -25 -37 -22 -117 51 l-58 53 31 33 c34 35 36
36 45 23z m-160 -188 c4 -21 7 -45 8 -53 1 -9 21 -18 55 -25 65 -12 68 -31 6
-28 l-45 3 21 -27 c14 -18 17 -30 10 -37 -11 -11 -7 -16 -84 74 -53 61 -68 90
-47 90 5 0 20 -12 32 -27 l22 -28 -6 48 c-5 37 -4 47 8 47 9 0 16 -14 20 -37z"/>
<path d="M3136 3089 c-68 -59 -129 -172 -313 -583 -65 -146 -81 -191 -71 -197
25 -17 38 -9 62 39 35 70 134 199 198 259 57 53 101 74 120 55 16 -16 1 -77
-27 -110 -22 -26 -30 -29 -67 -25 -49 5 -85 -14 -75 -41 5 -11 19 -16 48 -16
31 0 40 -3 36 -14 -35 -91 -32 -141 10 -157 55 -21 128 32 211 154 47 67 16
59 -33 -9 -50 -71 -111 -126 -133 -122 -13 3 -17 13 -15 48 5 120 7 128 35
144 58 35 89 136 52 167 -21 18 -74 15 -115 -6 -19 -10 -66 -51 -106 -92 l-72
-75 32 72 c27 61 42 80 96 123 148 118 278 345 231 402 -21 25 -66 18 -104
-16z m87 -1 c7 -23 -13 -91 -46 -152 -29 -55 -179 -226 -198 -226 -9 0 65 172
114 264 51 96 116 153 130 114z m-183 -589 c0 -5 -15 -9 -32 -9 -31 1 -32 2
-15 15 19 14 47 10 47 -6z"/>
<path d="M2743 3055 c-61 -26 -128 -79 -244 -192 l-115 -113 -45 46 c-80 84
-176 113 -249 76 -118 -59 -103 -230 30 -329 28 -21 50 -40 50 -44 0 -18 -145
-140 -196 -165 -119 -58 -265 -41 -344 41 -64 67 -47 176 35 222 73 41 200 24
276 -36 43 -35 59 -27 28 13 -54 68 -182 107 -284 86 -102 -21 -156 -95 -141
-193 10 -67 55 -120 134 -159 59 -29 76 -33 147 -33 66 1 91 5 138 28 66 30
171 110 208 157 l24 31 67 -30 c37 -17 109 -43 162 -57 l95 -27 -15 -35 c-16
-40 -17 -38 18 -47 25 -6 29 -3 44 33 l16 41 49 -6 c61 -7 69 14 9 23 -22 4
-40 11 -40 16 0 16 125 266 176 353 90 155 114 205 114 245 0 29 -6 43 -22 54
-28 20 -82 20 -125 1z m105 -17 c21 -21 13 -48 -42 -131 -73 -112 -143 -236
-207 -367 -30 -60 -57 -110 -60 -110 -4 0 -16 28 -29 63 -12 34 -42 100 -66
146 l-43 84 55 63 c87 99 243 228 305 253 34 14 73 13 87 -1z m-604 -208 c29
-11 116 -88 116 -102 0 -13 -159 -198 -170 -198 -11 0 -67 47 -97 80 -102 113
9 275 151 220z m194 -232 c54 -112 78 -176 68 -186 -9 -8 -146 33 -223 68 -59
27 -63 31 -51 48 26 38 143 172 150 172 3 0 29 -46 56 -102z"/>
<path d="M1426 1818 c215 -199 259 -230 334 -244 l35 -6 -40 27 c-22 16 -74
60 -115 99 -121 115 -164 145 -249 171 -18 6 -8 -8 35 -47z"/>
<path d="M1780 1465 c-25 -7 -56 -17 -70 -23 -22 -9 -19 -11 27 -11 29 -1 121
-12 204 -26 83 -14 158 -21 165 -17 10 5 -19 22 -86 50 -108 46 -157 51 -240
27z"/>
<path d="M2110 1316 c-129 -34 -127 -36 30 -32 95 2 171 10 220 22 l75 18 -40
7 c-75 15 -197 8 -285 -15z"/>
<path d="M2645 1330 c-79 -9 -142 -31 -200 -71 -40 -27 -135 -119 -123 -119
18 0 276 103 312 124 48 29 105 76 91 74 -5 0 -41 -4 -80 -8z"/>
<path d="M1190 3368 c1 -7 12 -26 25 -43 24 -29 25 -29 39 -10 21 28 20 32
-14 50 -35 18 -50 19 -50 3z"/>
<path d="M970 2810 c0 -12 75 -51 84 -43 3 4 6 17 6 30 0 21 -5 23 -45 23 -25
0 -45 -4 -45 -10z"/>
<path d="M3812 2248 c5 -14 66 -53 73 -47 2 2 6 16 10 32 7 27 6 27 -40 27
-33 0 -45 -4 -43 -12z"/>
</g>
</svg>
