<?xml version="1.0" standalone="no"?>
<!DOCTYPE svg PUBLIC "-//W3C//DTD SVG 20010904//EN"
 "http://www.w3.org/TR/2001/REC-SVG-20010904/DTD/svg10.dtd">
<svg version="1.0" xmlns="http://www.w3.org/2000/svg"
 width="500.000000pt" height="500.000000pt" viewBox="0 0 500.000000 500.000000"
 preserveAspectRatio="xMidYMid meet">

<g transform="translate(0.000000,500.000000) scale(0.100000,-0.100000)"
fill="#000000" stroke="none">
<path d="M2365 3483 c-128 -19 -290 -81 -411 -158 -75 -48 -203 -172 -260
-251 -65 -90 -120 -208 -151 -320 -24 -90 -27 -115 -26 -269 0 -155 2 -178 26
-256 35 -116 68 -187 124 -272 132 -198 327 -342 560 -414 81 -25 102 -27 268
-27 141 -1 194 3 242 16 283 78 505 249 637 490 85 155 119 290 119 478 0 177
-29 304 -103 451 -99 195 -303 384 -501 465 -136 56 -185 66 -344 69 -82 1
-163 0 -180 -2z m335 -178 c100 -26 256 -105 335 -172 122 -102 230 -269 270
-418 22 -82 30 -253 16 -343 -42 -268 -210 -493 -456 -612 -136 -66 -220 -85
-370 -83 -214 1 -375 62 -548 207 -103 86 -210 260 -249 405 -28 104 -31 326
-5 421 82 300 329 536 632 604 87 20 280 15 375 -9z"/>
<path d="M2080 2745 l0 -45 60 0 c33 0 60 -4 60 -8 0 -4 -18 -109 -40 -232
-22 -124 -40 -231 -40 -237 0 -21 78 -17 84 5 12 40 86 493 86 526 l0 36 -105
0 -105 0 0 -45z"/>
<path d="M2335 2777 c-3 -7 -4 -76 -3 -152 l3 -140 28 -3 c20 -3 33 3 48 22
12 15 26 23 35 19 12 -4 14 -26 12 -122 -3 -108 -4 -116 -23 -116 -17 0 -20 8
-23 48 l-3 47 -40 0 -39 0 0 -49 c0 -124 123 -174 193 -79 16 21 21 48 25 125
7 165 -24 230 -105 219 l-43 -6 0 55 0 54 68 3 67 3 0 40 0 40 -98 3 c-74 2
-99 0 -102 -11z"/>
<path d="M2606 2768 c-20 -29 -23 -225 -3 -251 21 -28 62 -32 86 -8 19 19 21
33 21 129 0 123 -11 152 -60 152 -18 0 -34 -8 -44 -22z m59 -41 c11 -41 1
-180 -12 -185 -10 -3 -13 22 -13 102 0 63 4 106 10 106 5 0 12 -10 15 -23z"/>
<path d="M2766 2578 c-43 -117 -91 -248 -107 -291 l-29 -78 26 3 c25 3 32 19
130 288 57 156 104 286 104 287 0 2 -10 3 -23 3 -21 0 -31 -19 -101 -212z"/>
<path d="M2826 2478 c-24 -34 -23 -218 2 -248 22 -28 70 -30 89 -4 16 22 18
225 3 255 -15 28 -74 26 -94 -3z m59 -123 c0 -70 -4 -100 -12 -102 -10 -4 -13
21 -13 102 0 81 3 106 13 103 8 -3 12 -33 12 -103z"/>
</g>
</svg>
